<?xml version="1.0" encoding="UTF-8" standalone="no"?>
<!-- Created with Inkscape (http://www.inkscape.org/) -->

<svg
   xmlns:dc="http://purl.org/dc/elements/1.1/"
   xmlns:cc="http://creativecommons.org/ns#"
   xmlns:rdf="http://www.w3.org/1999/02/22-rdf-syntax-ns#"
   xmlns:svg="http://www.w3.org/2000/svg"
   xmlns="http://www.w3.org/2000/svg"
   xmlns:sodipodi="http://sodipodi.sourceforge.net/DTD/sodipodi-0.dtd"
   xmlns:inkscape="http://www.inkscape.org/namespaces/inkscape"
   width="100.84404mm"
   height="91.697029mm"
   viewBox="0 0 100.84404 91.697029"
   version="1.1"
   id="svg3971"
   inkscape:version="0.92.4 (5da689c313, 2019-01-14)"
   sodipodi:docname="logo-decoration-clipped.svg">
  <defs
     id="defs3965">
    <clipPath
       clipPathUnits="userSpaceOnUse"
       id="clipPath31">
      <rect
         id="rect33"
         width="112.6369"
         height="97.139877"
         x="0.79087067"
         y="0.8529436"
         style="stroke-width:0.26458332" />
    </clipPath>
  </defs>
  <sodipodi:namedview
     id="base"
     pagecolor="#ffffff"
     bordercolor="#666666"
     borderopacity="1.0"
     inkscape:pageopacity="0.0"
     inkscape:pageshadow="2"
     inkscape:zoom="1.4"
     inkscape:cx="282.52978"
     inkscape:cy="175.71105"
     inkscape:document-units="mm"
     inkscape:current-layer="layer1"
     showgrid="false"
     inkscape:snap-global="false"
     inkscape:window-width="1920"
     inkscape:window-height="1017"
     inkscape:window-x="-8"
     inkscape:window-y="-8"
     inkscape:window-maximized="1"
     fit-margin-top="0"
     fit-margin-left="0"
     fit-margin-right="0"
     fit-margin-bottom="0" />
  <metadata
     id="metadata3968">
    <rdf:RDF>
      <cc:Work
         rdf:about="">
        <dc:format>image/svg+xml</dc:format>
        <dc:type
           rdf:resource="http://purl.org/dc/dcmitype/StillImage" />
        <dc:title></dc:title>
      </cc:Work>
    </rdf:RDF>
  </metadata>
  <g
     inkscape:label="Layer 1"
     inkscape:groupmode="layer"
     id="layer1"
     transform="translate(-12.583731,-0.8529436)">
    <g
       id="g27"
       clip-path="url(#clipPath31)">
      <g
         transform="matrix(0.26458333,0,0,0.26458333,16.034566,3.7971507)"
         id="Background" />
      <path
         style="fill:#a5f3c9;stroke-width:0.4815729"
         inkscape:connector-curvature="0"
         d="m 54.234063,29.395262 c 0.286055,4.082778 3.27277,6.027357 3.53185,11.819245 3.167783,-5.721578 5.704223,-9.889102 5.166803,-16.354708 -0.26728,-3.269386 -0.83456,-8.128465 -2.9636,-10.605682 2.21331,-1.580992 4.53835,-3.188975 7.2857,-4.9115524 -1.1288,3.3705304 -2.77193,7.1648394 -2.83261,10.0518754 -0.10537,4.57878 1.52372,8.211772 4.31011,11.672363 1.0739,-5.848713 3.74564,-10.464096 3.88291,-14.012817 0.12849,-3.359446 -1.24199,-6.373125 -3.53428,-8.8320495 3.59399,-2.1492505 9.55442,-5.4037305 13.73447,-5.6859215 1.33587,-0.112665 1.45387,-1.62194297 0.15508,-1.95422297 -0.65785,-0.12467897 -2.55813,0.329386 -3.34838,0.56246997 -4.01633,1.207303 -8.16221,3.5087513 -11.71187,5.710985 -1.41534,-3.632992 -5.58672,-6.28550497 -9.17975,-7.8843145 -4.44731,-1.9787962 -9.402215,-0.5123997 -13.232162,-3.1278185 -0.338542,5.26744 3.461537,9.587144 8.924024,11.248584 3.856928,1.1759965 8.375998,0.06352 11.878958,0.782069 -2.82972,1.8275613 -5.28718,3.577605 -7.61608,5.294886 C 53.557453,11.648818 52.914552,8.0957655 47.927864,6.04715 42.736032,3.918613 35.746487,6.06553 34.068684,1.920088 c -0.943896,-2.35104653 -2.132886,10.133724 7.460046,13.132005 5.676785,1.789995 9.032864,1.449523 14.820399,-0.135417 -2.341891,1.776526 -4.651508,3.599284 -6.934646,5.459116 -11.583269,-5.9484 -21.207035,-4.58555 -31.71303,1.57473 7.47883,1.561262 9.186483,4.935161 14.230011,4.982356 4.151636,0.0506 8.384175,-1.07438 13.763826,-3.483688 -1.613263,1.354659 -3.214984,2.72377 -4.807533,4.103001 -10.784837,2.192114 -16.936437,8.50361 -20.193319,18.879103 12.627324,-3.240029 16.918144,-7.24094 21.384732,-18.14423 1.362849,-1.147584 2.730996,-2.287943 4.107806,-3.417236 -2.326001,3.349345 -3.483688,6.404923 -4.644286,11.376668 -2.31155,10.049945 7.47113,15.122851 6.168944,12.999592 -2.32551,-3.792871 3.568943,-9.821685 4.677522,-15.44261 1.112438,-5.543861 -2.783979,-9.226926 -2.218123,-12.14574 2.391016,-1.898838 4.808022,-3.756268 7.25538,-5.559768 -2.728107,4.729049 -3.446147,9.385857 -3.19235,13.2972 z"
         id="path4012" />
      <g
         transform="matrix(0.75058103,0,0,-0.64540506,-35.119347,262.49093)"
         id="g3996">
        <path
           style="fill:#b5d861"
           inkscape:connector-curvature="0"
           d="m 64.186,278.103 c 8.883,-8.217 17.765,-12.968 28.268,-14.37 9.522,5.299 -1.199,16.932 8.318,18.28 8.5,1.202 -1.877,-15.247 -0.25,-18.704 9.217,0.2 19.766,2.583 32.494,7.094 1.726,11.633 -6.185,21.712 1.203,25.136 9.61,4.452 2.345,-17.096 4.34,-23.094 10.701,4.092 20.144,8.046 27.905,16.765 2.223,9.095 -8.84,12.908 -6.929,22.658 7.774,6.856 11.916,-11.782 10.284,-18.35 9.634,14.335 7.492,31.769 0.952,45.017 14.87,12.007 31.918,27.232 41.8,43.856 1.449,3.385 -2.565,5.783 -4.6,2.248 -9.167,-15.914 -25.265,-30.452 -39.395,-42.217 -8.589,12.106 -27.285,23.136 -53.593,13.301 -2.568,-6.933 12.009,-8.691 17.13,-15.173 5.352,-6.772 0.179,-11.661 -4.678,-5.548 -7.082,8.906 -16.363,14.727 -22.199,16.274 -14.724,-8.007 -23.606,-19.267 -28.852,-29.711 5.684,-6.553 27.329,-5.822 19.551,-15.902 -6.757,-8.753 -8.242,13.422 -22.666,8.767 -1.852,-4.974 -2.908,-9.494 -3.449,-13.034 -2.202,-14.412 -8.212,-18.534 -5.634,-23.293 z"
           id="path3990" />
        <g
           id="g3994">
          <path
             style="fill:#d2ea88"
             inkscape:connector-curvature="0"
             d="m 92.454,263.733 c 9.522,5.299 -1.199,16.932 8.318,18.28 8.5,1.202 -1.877,-15.247 -0.25,-18.704 9.217,0.2 19.766,2.583 32.494,7.094 1.726,11.633 -6.185,21.712 1.203,25.136 9.61,4.452 2.345,-17.096 4.34,-23.094 10.701,4.092 20.144,8.046 27.905,16.765 2.223,9.095 -8.84,12.908 -6.929,22.658 7.774,6.856 11.916,-11.782 10.284,-18.35 10,14.882 7.314,33.105 0.185,46.516 -28.597,-24.976 -78.411,-54.757 -105.449,-62.262 8.761,-8.011 17.542,-12.658 27.899,-14.039 z"
             id="path3992" />
        </g>
      </g>
      <path
         style="fill:#53dbc1;stroke-width:0.34691787"
         inkscape:connector-curvature="0"
         d="m 73.916279,44.741184 c -0.47979,-0.577276 -0.0641,-0.989067 -0.74692,-2.822524 -0.76148,-2.049252 -2.11515,-4.336131 -0.85376,-7.873657 1.18265,-3.283917 3.78036,-3.678715 6.28337,-4.323976 0.45586,-1.116382 0.95022,-2.269885 1.47891,-3.445586 -1.26139,1.614896 -2.71011,3.117751 -5.07366,3.277322 -4.72155,0.326459 -5.53092,-3.74809 -7.85976,-4.033955 -2.38299,-0.270249 3.26241,-7.169051 8.60841,-6.871754 2.87663,0.162011 4.2022,2.619933 5.51043,5.080622 1.24197,-2.577948 2.64282,-5.214874 4.19077,-7.777206 -1.77066,1.657575 -3.62148,3.133707 -6.07973,2.69728 -4.90056,-0.859667 -4.59007,-6.106795 -6.81346,-7.137493 -2.36842,-1.061562 5.62699,-8.026632 10.91541,-5.969761 2.73372,1.066086 3.24056,4.496054 3.77447,7.578416 1.8522,-2.782271 3.88063,-5.404274 6.06725,-7.680059 -1.5986,0.920714 -3.2815,1.634326 -5.32138,1.168069 -4.75729,-1.064341 -4.09986,-5.359183 -6.22578,-6.27470494 -0.54918,-0.233824 -0.4673,-0.76356919 0.0898,-1.40640436 2.01872,-2.3545351 7.94546,-4.5009075 11.42332,-2.8121134 2.48983,1.2138694 2.54014,4.00967176 2.71845,6.7836297 1.49036,-1.270408 3.04247,-2.36701797 4.653221,-3.23327913 0.38021,-0.2018962 0.81698,-0.1054194 0.97554,0.2151002 0.15854,0.32020399 -8.8e-4,0.73338496 -0.35803,0.92210496 C 99.697089,1.666112 98.182109,2.729418 96.730259,3.947103 c 2.70352,0.699046 4.825981,1.763729 5.807411,4.5265805 1.54656,4.3232935 0.10305,9.9700855 -1.35958,8.1938605 -1.596171,-1.952447 -5.164921,-1.345342 -7.167681,-5.14167 -1.06365,-2.0367567 -0.48673,-3.8501 0.58491,-5.631516 -2.36772,2.3253875 -4.54672,5.037247 -6.52275,7.928464 1.32175,-0.270603 2.74307,-0.49471 4.07592,-0.404855 3.09523,0.200166 4.96268,2.051324 5.88409,5.395608 0.96582,3.520875 0.30148,7.583282 -1.30025,6.543564 -2.16581,-1.443864 -6.10299,0.757668 -9.39974,-2.459299 -1.90736,-1.869187 -1.52367,-4.309763 -0.7778,-6.757957 -1.66242,2.642826 -3.1625,5.379651 -4.48877,8.063754 2.758,-0.479095 5.44801,-0.708054 7.4244,1.490017 3.15244,3.526762 3.07924,10.7215 1.13824,9.413619 -1.98334,-1.362688 -5.3186,0.497136 -8.41173,-2.667804 -1.76512,-1.810563 -1.5816,-4.056847 -1.13165,-6.195261 -1.64994,3.529542 -1.65722,3.930935 -1.89555,4.131101 1.25583,2.365982 2.44924,4.712887 1.6031,7.451101 -0.78888,2.544998 -2.96511,4.867607 -5.23741,6.232735 -0.32749,0.203981 -0.62757,0.327141 -0.84092,0.539801 -0.16826,0.195656 -0.32194,0.719159 -0.79827,0.142238 z m -0.70389,-21.087748 c -0.84787,3.302996 3.5722,2.517583 6.39403,0.580043 -1.86988,-1.828946 -5.73072,-3.11741 -6.39403,-0.580043 z m 5.99716,-12.695476 c -1.81541,3.711691 2.65011,4.13978 6.25666,2.500588 -1.42202,-2.838481 -4.83221,-5.3734085 -6.25666,-2.500588 z m 9.2138,-10.74507394 C 86.296029,3.192214 90.722019,3.778498 94.275519,2.978504 93.177499,0.35407506 90.111799,-2.0833681 88.423349,0.21288606 Z M 99.566359,11.24764 c 1.741181,-1.088979 -1.03105,-4.553983 -2.87942,-5.615558 -0.8711,2.9880075 0.55714,7.120839 2.87942,5.615558 z m -5.95278,8.78813 c 1.70824,-2.054798 -2.2803,-4.325365 -4.97133,-4.504381 0.0329,3.518435 2.74065,7.215546 4.97133,4.504381 z m -6.09986,10.051944 c 1.34708,-1.886534 -2.32817,-4.035004 -4.66709,-4.318784 0.30773,3.221138 2.91065,6.801684 4.66709,4.318784 z m -9.44865,1.527138 c -2.55713,1.795996 -4.62962,6.114767 -1.77656,6.54911 2.2057,0.339977 2.29347,-4.369776 1.77656,-6.54911 z"
         id="path3998" />
      <g
         transform="matrix(0.26458333,0,0,0.26458333,16.034566,3.7971507)"
         id="DXF" />
      <g
         transform="matrix(0.26458333,0,0,0.26458333,16.034566,3.7971507)"
         id="Watermark"
         style="opacity:0.6" />
      <g
         transform="matrix(0.26458333,0,0,0.26458333,16.034566,3.7971507)"
         id="Logo" />
    </g>
  </g>
</svg>
