<?xml version="1.0" encoding="UTF-8" standalone="no"?>
<svg
   xmlns:dc="http://purl.org/dc/elements/1.1/"
   xmlns:cc="http://creativecommons.org/ns#"
   xmlns:rdf="http://www.w3.org/1999/02/22-rdf-syntax-ns#"
   xmlns:svg="http://www.w3.org/2000/svg"
   xmlns="http://www.w3.org/2000/svg"
   xmlns:sodipodi="http://sodipodi.sourceforge.net/DTD/sodipodi-0.dtd"
   xmlns:inkscape="http://www.inkscape.org/namespaces/inkscape"
   sodipodi:docname="rain-drop.svg"
   inkscape:version="1.0beta1 (32d4812, 2019-09-19)"
   id="svg906"
   version="1.1"
   viewBox="0 0 36.438175 53.05632"
   height="53.05632mm"
   width="36.438175mm">
  <defs
     id="defs900" />
  <sodipodi:namedview
     fit-margin-bottom="0"
     fit-margin-right="0"
     fit-margin-left="0"
     fit-margin-top="0"
     inkscape:window-maximized="1"
     inkscape:window-y="436"
     inkscape:window-x="1200"
     inkscape:window-height="1035"
     inkscape:window-width="1920"
     showgrid="false"
     inkscape:document-rotation="0"
     inkscape:current-layer="layer1"
     inkscape:document-units="mm"
     inkscape:cy="243.40859"
     inkscape:cx="-464.39921"
     inkscape:zoom="0.35"
     inkscape:pageshadow="2"
     inkscape:pageopacity="0.0"
     borderopacity="1.0"
     bordercolor="#666666"
     pagecolor="#ffffff"
     id="base" />
  <metadata
     id="metadata903">
    <rdf:RDF>
      <cc:Work
         rdf:about="">
        <dc:format>image/svg+xml</dc:format>
        <dc:type
           rdf:resource="http://purl.org/dc/dcmitype/StillImage" />
        <dc:title></dc:title>
      </cc:Work>
    </rdf:RDF>
  </metadata>
  <g
     transform="translate(-83.184792,-83.764811)"
     id="layer1"
     inkscape:groupmode="layer"
     inkscape:label="Layer 1">
    <g
       transform="matrix(0.28177529,0,0,0.27637741,235.70877,271.14954)"
       id="Background"
       style="opacity:1;stop-opacity:1" />
    <g
       transform="matrix(0.28177529,0,0,0.27637741,235.70877,271.14954)"
       id="DXF"
       style="opacity:1;stop-opacity:1" />
    <g
       transform="matrix(0.28177529,0,0,0.27637741,235.70877,271.14954)"
       id="Watermark"
       style="opacity:0.6;stop-opacity:1" />
    <g
       transform="matrix(0.28177529,0,0,0.27637741,235.70877,271.14954)"
       id="Logo"
       style="opacity:1;stop-opacity:1" />
    <g
       transform="matrix(0.15372851,0,0,0.15372851,74.875766,83.764811)"
       id="g3774"
       style="opacity:1;stop-opacity:1">
      <g
         id="g3717">
        <path
           inkscape:connector-curvature="0"
           style="fill:#76cdce"
           d="m 264.25,301.7 c -2.45,3.01 -5.08,5.91 -7.88,8.71 -23.14,23.14 -53.47,34.72 -83.8,34.72 -30.33,0 -60.66,-11.58 -83.81,-34.72 -22.86,-22.86 -34.71,-53.2 -34.71,-83.84 0,-21.31 5.74,-42.77 17.5,-61.94 L 92.71,130.15 172.57,0 l 31.67,51.62 24.28,39.56 45.06,73.45 c 26.6,43.36 22.391,98.4 -9.33,137.07 z"
           id="path3713" />
        <path
           inkscape:connector-curvature="0"
           style="fill:#96e0de"
           d="M 264.25,301.7 92.71,130.15 172.57,0 l 31.67,51.62 24.28,39.56 45.06,73.45 c 26.6,43.36 22.391,98.4 -9.33,137.07 z"
           id="path3715" />
      </g>
      <g
         id="g3719" />
      <g
         id="g3721" />
      <g
         id="g3723" />
      <g
         id="g3725" />
      <g
         id="g3727" />
      <g
         id="g3729" />
      <g
         id="g3731" />
      <g
         id="g3733" />
      <g
         id="g3735" />
      <g
         id="g3737" />
      <g
         id="g3739" />
      <g
         id="g3741" />
      <g
         id="g3743" />
      <g
         id="g3745" />
      <g
         id="g3747" />
    </g>
  </g>
</svg>
