<?xml version="1.0" encoding="iso-8859-1"?>
<!-- Generator: Adobe Illustrator 19.0.0, SVG Export Plug-In . SVG Version: 6.00 Build 0)  -->
<svg version="1.1" id="Capa_1" xmlns="http://www.w3.org/2000/svg" xmlns:xlink="http://www.w3.org/1999/xlink" x="0px" y="0px"
	 viewBox="0 0 512 512" style="enable-background:new 0 0 512 512;" xml:space="preserve">
<g>
	<g>
		<path d="M406,60h-47.58c-6.192-17.459-22.865-30-42.42-30h-17.57C292.239,12.539,275.556,0,256,0
			c-19.556,0-36.239,12.539-42.43,30H196c-19.555,0-36.228,12.541-42.42,30H106c-24.813,0-45,20.187-45,45v362
			c0,24.813,20.187,45,45,45h300c24.813,0,45-20.187,45-45V105C451,80.187,430.813,60,406,60z M181,75c0-8.271,6.729-15,15-15h30
			c8.284,0,15-6.716,15-15c0-8.271,6.729-15,15-15s15,6.729,15,15c0,8.284,6.716,15,15,15h30c8.271,0,15,6.729,15,15v15H181V75z
			 M421,467c0,8.271-6.729,15-15,15H106c-8.271,0-15-6.729-15-15V105c0-8.271,6.729-15,15-15h45v15c0,8.284,6.716,15,15,15h180
			c8.284,0,15-6.716,15-15V90h45c8.271,0,15,6.729,15,15V467z"/>
	</g>
</g>
<g>
	<g>
		<path d="M376,152H196c-8.284,0-15,6.716-15,15s6.716,15,15,15h180c8.284,0,15-6.716,15-15S384.284,152,376,152z"/>
	</g>
</g>
<g>
	<g>
		<circle cx="136" cy="167" r="15"/>
	</g>
</g>
<g>
	<g>
		<path d="M376,242H196c-8.284,0-15,6.716-15,15s6.716,15,15,15h180c8.284,0,15-6.716,15-15S384.284,242,376,242z"/>
	</g>
</g>
<g>
	<g>
		<circle cx="136" cy="257" r="15"/>
	</g>
</g>
<g>
	<g>
		<path d="M376,332H196c-8.284,0-15,6.716-15,15s6.716,15,15,15h180c8.284,0,15-6.716,15-15S384.284,332,376,332z"/>
	</g>
</g>
<g>
	<g>
		<circle cx="136" cy="347" r="15"/>
	</g>
</g>
<g>
	<g>
		<path d="M376,422H196c-8.284,0-15,6.716-15,15s6.716,15,15,15h180c8.284,0,15-6.716,15-15S384.284,422,376,422z"/>
	</g>
</g>
<g>
	<g>
		<circle cx="136" cy="437" r="15"/>
	</g>
</g>
</svg>
